name E:\Dropbox\SEL\BOX\Experiment\240124_SUB1_PJH\c3d\XYZ\UpDown_TrcMot\15_10_trial2_U1_ExtLoadAPP3.mot
datacolumns 37
datarows 7
range 2.613 2.619
endheader

time	    ground_force1_vx	    ground_force1_vy	    ground_force1_vz	    ground_force1_px	    ground_force1_py	    ground_force1_pz	    ground_torque1_x	    ground_torque1_y	    ground_torque1_z	    ground_force2_vx	    ground_force2_vy	    ground_force2_vz	    ground_force2_px	    ground_force2_py	    ground_force2_pz	    ground_torque2_x	    ground_torque2_y	    ground_torque2_z	      hand_force3_vx	      hand_force3_vy	      hand_force3_vz	      hand_force3_px	      hand_force3_py	      hand_force3_pz	      hand_torque3_x	      hand_torque3_y	      hand_torque3_z	      hand_force4_vx	      hand_force4_vy	      hand_force4_vz	      hand_force4_px	      hand_force4_py	      hand_force4_pz	      hand_torque4_x	      hand_torque4_y	      hand_torque4_z	
2.613	         46.62125765	        400.06733118	         12.93015366	          0.22380263	          0.00000000	          0.19793430	          0.00000000	         -2.34039750	          0.00000000	        -53.70119393	        451.44741867	         15.46531267	          0.57650007	          0.00000000	          0.18748745	          0.00000000	          1.39688456	          0.00000000	          0.00000000	          0.00000000	          0.00000000	          0.14301513	          1.03292026	         -0.22742410	          0.00000000	          0.00000000	          0.00000000	          0.00000000	          0.00000000	          0.00000000	          0.65737260	          1.06017880	         -0.21538510	          0.00000000	          0.00000000	          0.00000000	
2.614	         46.57985427	        399.64295670	         13.02768900	          0.22377242	          0.00000000	          0.19735046	          0.00000000	         -2.30912002	          0.00000000	        -53.69262512	        451.36438952	         15.40238207	          0.57646612	          0.00000000	          0.18727015	          0.00000000	          1.36928921	          0.00000000	          0.00000000	          0.00000000	          0.00000000	          0.14299784	          1.03295201	         -0.22816405	          0.00000000	          0.00000000	          0.00000000	          0.00000000	          0.00000000	          0.00000000	          0.65740442	          1.06017691	         -0.21605740	          0.00000000	          0.00000000	          0.00000000	
2.615	         46.53762065	        399.22096566	         13.11983579	          0.22374294	          0.00000000	          0.19677418	          0.00000000	         -2.27815385	          0.00000000	        -53.68044813	        451.27420530	         15.33577642	          0.57643228	          0.00000000	          0.18705614	          0.00000000	          1.34227663	          0.00000000	          0.00000000	          0.00000000	          0.00000000	          0.14298078	          1.03298121	         -0.22890239	          0.00000000	          0.00000000	          0.00000000	          0.00000000	          0.00000000	          0.00000000	          0.65743643	          1.06017194	         -0.21672906	          0.00000000	          0.00000000	          0.00000000	
2.616	         46.49458939	        398.80202331	         13.20650602	          0.22371422	          0.00000000	          0.19620567	          0.00000000	         -2.24750403	          0.00000000	        -53.66464724	        451.17703558	         15.26549420	          0.57639858	          0.00000000	          0.18684544	          0.00000000	          1.31585687	          0.00000000	          0.00000000	          0.00000000	          0.00000000	          0.14296397	          1.03300780	         -0.22963913	          0.00000000	          0.00000000	          0.00000000	          0.00000000	          0.00000000	          0.00000000	          0.65746862	          1.06016389	         -0.21740007	          0.00000000	          0.00000000	          0.00000000	
2.617	         46.45079161	        398.38678067	         13.28762219	          0.22368625	          0.00000000	          0.19564515	          0.00000000	         -2.21717503	          0.00000000	        -53.64521665	        451.07306621	         15.19153789	          0.57636502	          0.00000000	          0.18663808	          0.00000000	          1.29003854	          0.00000000	          0.00000000	          0.00000000	          0.00000000	          0.14294738	          1.03303169	         -0.23037424	          0.00000000	          0.00000000	          0.00000000	          0.00000000	          0.00000000	          0.00000000	          0.65750098	          1.06015277	         -0.21807043	          0.00000000	          0.00000000	          0.00000000	
2.618	         46.40625691	        397.97587262	         13.36311759	          0.22365905	          0.00000000	          0.19509280	          0.00000000	         -2.18717077	          0.00000000	        -53.62216046	        450.96249904	         15.11391391	          0.57633161	          0.00000000	          0.18643406	          0.00000000	          1.26482880	          0.00000000	          0.00000000	          0.00000000	          0.00000000	          0.14293100	          1.03305282	         -0.23110772	          0.00000000	          0.00000000	          0.00000000	          0.00000000	          0.00000000	          0.00000000	          0.65753351	          1.06013859	         -0.21874011	          0.00000000	          0.00000000	          0.00000000	
2.619	         46.36101328	        397.56991615	         13.43293634	          0.22363262	          0.00000000	          0.19454879	          0.00000000	         -2.15749463	          0.00000000	        -53.59549262	        450.84555144	         15.03263240	          0.57629838	          0.00000000	          0.18623340	          0.00000000	          1.24023333	          0.00000000	          0.00000000	          0.00000000	          0.00000000	          0.14291483	          1.03307112	         -0.23183955	          0.00000000	          0.00000000	          0.00000000	          0.00000000	          0.00000000	          0.00000000	          0.65756619	          1.06012136	         -0.21940911	          0.00000000	          0.00000000	          0.00000000	
